<svg version="1.0" xmlns="http://www.w3.org/2000/svg" width="346.667" height="346.667" viewBox="0 0 260 260"><path d="M162 28.8c-3 2.2-10.3 7.3-16.2 11.4L135 47.7l12 8.2c6.6 4.4 12.3 8.1 12.6 8.1.3 0 2.6-1.6 5.1-3.5l4.6-3.5 12.6 8.7c6.9 4.8 21.1 14.5 31.6 21.6l19 12.8.1 37.7c0 20.7-.2 38.3-.4 39-.3 1-4 1.3-15.6 1.2-8.3-.1-17.2-.1-19.7 0h-4.6l.1 11.7c.1 6.5.4 12.3.8 12.8.4.6 12.3 1 33 .9 17.7-.1 32.6-.2 33.1-.3.4 0 .6-26.3.5-58.3l-.3-58.2-8.7-6.1c-4.8-3.3-19-13-31.5-21.5S190.5 39.3 183 34.3c-7.4-5.1-14-9.3-14.5-9.3-.6 0-3.5 1.7-6.5 3.8zm91.9 161.5c1.2 1.5.7 5.2-1 7.3-.6.8-2.3 1.4-3.8 1.4l-2.6-.1 2.9-1.2 2.9-1.3-2.7-1.7c-2.2-1.5-2.5-2.1-1.6-3.7 1.2-2.3 4.2-2.6 5.9-.7z"/><path d="M250.1 191c-1.6.9-.6 3 1.5 3 1.5 0 2-2.5.6-3.4-.4-.2-1.4-.1-2.1.4zM118.4 58.5c-7.7 5.1-20.1 13.5-27.6 18.6L77 86.4v7.5c-.2 35.6.1 109.5.4 110 .3.4 18.7.7 41.1.6 22.3 0 41.1.3 41.7.6.6.4.8 1.4.5 2.2-.5 1.2-4.4 1.5-24.9 1.5-13.4 0-24.8.1-25.4.1-.6.1-1 4.6-1 12.9l.1 12.7h79l.3-73.7.2-73.7-16.7-11.2c-9.3-6.2-21.5-14.5-27.3-18.4-5.8-3.9-11-7.4-11.6-7.8-.6-.3-7.4 3.6-15 8.8zm28.7 33.1l13.9 9.5-.2 38.7-.3 38.7h-26.8c-14.8 0-27.3-.3-27.9-.6-.8-.5-1.2-12.3-1.2-38.5l-.1-37.7 4-2.9c6.6-4.9 23.9-16.8 24.3-16.8.2 0 6.6 4.3 14.3 9.6zm-83.2 4.2c-1.3 1-6.9 4.9-12.4 8.7-5.5 3.8-10.3 7.3-10.7 7.8-.3.6-.6 14.1-.7 30.1 0 16 0 30.6-.1 32.3v3.3H0v12.4c0 9 .3 12.5 1.3 12.8.6.2 15.8.4 33.7.3h32.5l.1-54.3c0-29.9-.3-54.5-.7-54.7-.4-.3-1.7.3-3 1.3zM220.3 206c-6.4 2.6-7.8 15.1-1.9 18.2 1.1.6 3.7 1.2 5.6 1.3 5 .3 5 .3 4.7 2.2-.5 3.4-1.8 4.3-6.3 4.3-3.2 0-4.4.4-4.2 1.2.6 1.6 4.1 2.2 8.3 1.4 4.4-.9 5.2-3.6 4.9-15.5-.2-7.6-.6-9.7-2.1-11.2-2.3-2.2-6.2-3.1-9-1.9zm6.7 3.6c.8.8 1.4 4.1 1.4 7.2l.1 5.7-3.5.3c-4.3.4-6.8-1.4-7.4-5.1-.5-3.1.9-7.7 2.7-8.9 2-1.3 5.4-.9 6.7.8zm18-3.1c0 1.1 1.1 1.5 4.4 1.5 2.7 0 5.1.6 6 1.6 1.9 1.9 2.2 10.4.4 12.2-.7.7-3.8 1.2-7 1.2-4.2 0-5.8.4-5.8 1.4 0 1 1.4 1.3 5.8 1.1 8.5-.3 10-1 10.8-5.1 1-5.2-.2-11.6-2.4-13.5-2.8-2.2-12.2-2.5-12.2-.4zm-44.1 1.2c0 1-.1 6.3-.2 11.8-.2 10.7-.7 12.5-3.8 12.5-1.1 0-1.9.7-1.9 1.6 0 1.3.6 1.5 2.8.9 4.9-1.2 5.4-2.4 5.6-14.7.1-6.2 0-11.9-.2-12.6-.6-1.8-2.2-1.5-2.3.5zm-198.4.1c-1.9.3-2 .9-1.7 13.8l.3 13.6 6.4-.6c10.4-.9 13-3.8 13-14.3 0-5.4-.4-6.6-2.6-8.9-2.5-2.5-10.4-4.4-15.4-3.6zm13 4.7c1.4 1.3 2.6 3.4 2.7 4.7.5 8-1 13.1-4.1 14.3-.9.4-3.7.9-6.3 1.1l-4.8.5V210h5c4.1 0 5.6.5 7.5 2.5zm19.8-4c-4.9 2.1-6.8 6.9-6.4 16.8.2 4.4 5.9 9.7 10.5 9.7 7.5 0 11.7-4.2 12.1-12.3.1-2.8-.2-6.3-.7-7.8-2.1-6-9.4-9.1-15.5-6.4zm11.4 4c1.3 1.4 2.4 3.7 2.4 5.1.1 1.3.2 3 .2 3.6.3 3.1-1.4 7.9-3.3 9.8-3 3-9 2.7-12.1-.6-2.1-2.2-2.4-3.5-2.4-9.6 0-6.4.3-7.2 2.7-9.3 3.7-3.2 9.4-2.7 12.5 1zm14.3 9.1c0 8.7.4 13.3 1 12.9.6-.3 1-3 1-5.9 0-4.6.3-5.4 2.1-5.9 2.5-.7 4.7 1.4 8.4 7.7 1.5 2.5 3.1 4.6 3.6 4.6 1.5 0 1-1.2-2.6-7l-3.4-5.5 2.5-1.3c1.3-.7 2.4-1.8 2.5-2.5 0-.7.2-2.2.5-3.5.3-1.5-.4-3.1-2.1-4.7-2-2.1-3.4-2.5-8-2.5H61v13.6zm12.9-8.3c1.7 4.5-1.3 7.7-7.1 7.7H63v-5.4c0-5.4 0-5.5 3.3-5.8 4.1-.4 6.6.7 7.6 3.5z"/><path d="M87 221.5c0 8.3.4 13.5 1 13.5s1-2.6 1-5.8c0-3.2.2-6.1.5-6.4.3-.3 1.7-.3 3.1 0 2.4.4 3.8 2.1 9 10.8.6 1 1.3 1.4 1.7.8.3-.6-.9-3.5-2.8-6.6l-3.3-5.6 2.3-1c1.4-.6 2.6-2.3 3-4.1 1.4-6.6-1.5-9.1-10.6-9.1H87v13.5zm12.3-9.8c2.2 2.5 1.1 7.2-2 8.4-1.3.5-3.8.9-5.4.9-2.9 0-2.9-.1-2.9-5.5V210h4.3c2.9 0 4.9.6 6 1.7z"/></svg>