<svg width="75" height="63" xmlns="http://www.w3.org/2000/svg"><g fill="#3FA6A2"><path d="M11 21h5v5h-5zm0 9h5v5h-5zm0 9h5v5h-5zm0 10h5v5h-5zm48-28h5v5h-5zm0 9h5v5h-5zm0 9h5v5h-5zm0 10h5v5h-5zM40 21h5v5h-5zm0 9h5v5h-5zm0 9h5v5h-5zm-9-18h5v5h-5zm9-10h5v5h-5zm-9 0h5v5h-5zm0 19h5v5h-5zm0 9h5v5h-5z"/><path d="M75 15.768v-4.36H53.98V7.606L37.5 0 21.02 7.606v3.802H0v4.36h1.978V58.64H0V63h75v-4.36h-1.978V15.768H75zM37.5 4.808l12.085 5.578V58.64h-5.127v-9.446H30.542v9.446h-5.127V10.386L37.5 4.81zm2.563 53.832h-5.126v-5.086h5.126v5.086zM6.373 15.768H21.02V58.64H6.372V15.768zM53.978 58.64V15.768h14.649V58.64H53.979z"/></g></svg>