<svg width="19" height="18" xmlns="http://www.w3.org/2000/svg"><g fill="#2B2B2B" stroke="#2B2B2B" stroke-width=".3"><path d="M16.891 7.93h-.325c.002-1.596.025-3.194-.001-4.79-.02-1.214-.964-2.238-2.255-2.132-1.606.131-2.342 1.898-1.535 3.185.22.35.784.029.563-.324-.475-.757-.274-1.75.6-2.114.757-.315 1.656.082 1.907.86.159.49.067 1.125.067 1.628V7.93H2.11C1.497 7.93 1 8.42 1 9.02v.462c0 .464.127 1.168.289 1.603l1.533 4.118c.134.36.458.662.831.819v.667c0 .413.653.414.653 0v-.552H14.82c.035 0 .07-.006.105-.01v.562c0 .413.652.414.652 0v-.785c.271-.17.496-.418.601-.701l1.533-4.118c.162-.435.289-1.14.289-1.604V9.02a1.1 1.1 0 00-1.109-1.091zM1.652 9.02c0-.248.205-.45.457-.45H16.89c.252 0 .457.202.457.45v.462c0 .1-.008.216-.022.34H1.674a3.21 3.21 0 01-.022-.34V9.02zm13.914 5.962c-.102.273-.45.513-.746.513H4.18c-.296 0-.644-.24-.746-.513l-1.532-4.118a3.429 3.429 0 01-.117-.4h15.43a3.48 3.48 0 01-.116.4l-1.533 4.118z"/><path d="M5.876 13.632c-.311 0-.734.102-1.023-.083-.379-.243-.466-.937-.598-1.43-.056-.21-.303-.12-.247.092.143.53.237 1.215.6 1.552.356.333.858.218 1.268.218.165 0 .165-.349 0-.349z"/></g></svg>