<svg width="19" height="15" xmlns="http://www.w3.org/2000/svg"><path d="M16.017 5.683H7.15a.926.926 0 00.083-.386v-.33c0-.524-.425-.937-.963-.937H4.23c-.538 0-.963.413-.963.937v.33c0 .138.03.269.083.386H2.7V1.55A.56.56 0 002.133 1h-.566A.56.56 0 001 1.55v12.121a.56.56 0 00.567.551h.566a.56.56 0 00.567-.55V10.09h13.6v3.581a.56.56 0 00.567.551h.566a.56.56 0 00.567-.55v-6.06c0-1.075-.878-1.93-1.983-1.93zM3.833 5.297v-.33c0-.22.17-.386.397-.386h2.04c.227 0 .397.165.397.386v.33c0 .22-.17.386-.397.386H4.23a.382.382 0 01-.397-.386zM1.567 1.551h.566v4.132h-.566V1.55zm.85 7.988c-.17 0-.284.11-.284.276v3.856h-.566V6.234h3.4v3.305h-2.55zm15.016 4.132h-.566V9.815c0-.165-.114-.276-.284-.276H5.533V6.234h10.484c.793 0 1.416.606 1.416 1.377v6.06h0z" fill="#2B2B2B" stroke="#2B2B2B" stroke-width=".3"/></svg>