<svg width="68" height="60" xmlns="http://www.w3.org/2000/svg"><g fill="#3FA6A2"><path d="M62.023 24h-2.125V6c0-3.308-2.68-6-5.976-6H5.977C2.68 0 0 2.692 0 6v32c0 3.308 2.681 6 5.977 6h1.992v10a2 2 0 001.23 1.848c.744.31 1.6.138 2.17-.434L22.74 44h9.269v2c0 3.308 2.68 6 5.976 6h11.128l7.386 7.414c.57.573 1.428.743 2.17.434A2 2 0 0059.899 58v-6h2.125C65.32 52 68 49.308 68 46V30c0-3.308-2.681-6-5.977-6zM21.914 40c-.528 0-1.035.21-1.409.586l-8.552 8.585V42c0-1.105-.892-2-1.992-2H5.977a1.998 1.998 0 01-1.993-2V6c0-1.103.894-2 1.993-2h47.945c1.098 0 1.992.897 1.992 2v18h-17.93c-3.295 0-5.976 2.692-5.976 6v10H21.914zm42.102 6c0 1.103-.894 2-1.993 2h-4.117c-1.1 0-1.992.895-1.992 2v3.172l-4.568-4.586A1.987 1.987 0 0049.938 48H37.983a1.998 1.998 0 01-1.992-2V30c0-1.103.894-2 1.992-2h24.04c1.098 0 1.992.897 1.992 2v16z"/><path d="M52.586 34.586L48 39.172l-1.586-1.586a2 2 0 10-2.828 2.828l3 3c.39.39.902.586 1.414.586a1.99 1.99 0 001.414-.586l6-6a2 2 0 10-2.828-2.828zM26.017 28H13.983A1.992 1.992 0 0012 30c0 1.105.888 2 1.983 2h12.034A1.992 1.992 0 0028 30c0-1.105-.888-2-1.983-2zm3.996-8H13.987A1.993 1.993 0 0012 22c0 1.105.89 2 1.987 2h16.026A1.993 1.993 0 0032 22c0-1.105-.89-2-1.987-2zm-16.02-4h32.014c1.1 0 1.993-.895 1.993-2s-.892-2-1.993-2H13.993c-1.1 0-1.993.895-1.993 2s.892 2 1.993 2z"/></g></svg>