<svg width="58" height="58" xmlns="http://www.w3.org/2000/svg"><g fill="#3FA6A2"><path d="M41.224 31H11.828C10.82 31 10 30.16 10 29.125v-11.25C10 16.84 10.819 16 11.828 16h35.344C48.18 16 49 16.84 49 17.875V23.5c0 1.035-.819 1.875-1.828 1.875-1.01 0-1.828-.84-1.828-1.875v-3.75H13.656v7.5h27.568c1.01 0 1.829.84 1.829 1.875 0 1.035-.82 1.875-1.829 1.875zm-8.078 8H10.854C9.83 39 9 38.104 9 37s.83-2 1.854-2h22.292C34.17 35 35 35.896 35 37s-.83 2-1.854 2zm-6.936 7H11.79c-.988 0-1.79-.896-1.79-2s.802-2 1.79-2h14.42c.988 0 1.79.896 1.79 2s-.802 2-1.79 2zm4.569 12c-.468 0-.923-.184-1.258-.518a1.751 1.751 0 01-.493-1.555l1.257-7.07c.064-.355.238-.685.494-.941l17.619-17.467c.75-.744 1.545-1.207 2.363-1.376 1.132-.236 2.229.105 3.09.962l2.935 2.91a4.099 4.099 0 010 5.823L39.17 56.238a1.79 1.79 0 01-.95.49l-7.13 1.246a1.98 1.98 0 01-.311.026zm2.914-7.98l-.72 4.04 4.075-.714 17.22-17.076a.589.589 0 000-.833l-2.913-2.89c-.024.045-.202.158-.442.394l-17.22 17.078z"/><path d="M23.756 53H6.646C2.98 53 0 50.03 0 46.375V6.625C0 2.97 2.98 0 6.646 0h44.708C55.02 0 58 2.97 58 6.625v17.562a1.81 1.81 0 01-1.813 1.807c-1 0-1.812-.81-1.812-1.807V6.625a3.02 3.02 0 00-3.02-3.011H6.644a3.02 3.02 0 00-3.02 3.011v39.75a3.02 3.02 0 003.02 3.011h17.11a1.81 1.81 0 011.813 1.807A1.81 1.81 0 0123.756 53z"/><path d="M56.188 12H1.812C.813 12 0 11.104 0 10s.812-2 1.813-2h54.374C57.188 8 58 8.896 58 10s-.812 2-1.813 2z"/></g></svg>