<svg width="23" height="18" xmlns="http://www.w3.org/2000/svg"><g fill="#FFF"><path d="M20.192 0H2.812C1.263 0 0 1.297 0 2.892v12.216C0 16.703 1.261 18 2.813 18h17.374C21.74 18 23 16.703 23 15.108V2.898C23.005 1.301 21.744 0 20.192 0zm1.528 15.108c0 .866-.685 1.57-1.528 1.57H2.812c-.842 0-1.527-.704-1.527-1.57V2.898c0-.867.685-1.572 1.528-1.572h17.374c.843 0 1.528.705 1.528 1.571v12.21h.005z"/><path d="M15.053 9.345l5.72-5.188a.67.67 0 00.048-.934.651.651 0 00-.924-.05l-7.888 7.16-1.54-1.39c-.004-.005-.009-.01-.009-.014a.97.97 0 00-.106-.093L4.09 3.169a.647.647 0 00-.924.054.665.665 0 00.053.934L9.008 9.39l-5.764 5.456a.669.669 0 00-.029.935.65.65 0 00.924.034l5.852-5.535 1.587 1.434a.649.649 0 00.871-.005l1.63-1.478 5.818 5.589a.65.65 0 00.924-.024.669.669 0 00-.024-.935l-5.744-5.515z"/></g></svg>