<svg width="75" height="69" xmlns="http://www.w3.org/2000/svg"><g fill="#3FA6A2"><path d="M74.297 54.46l-3.745-2.303a1.452 1.452 0 00-1.523 0l-2.983 1.834-2.983-1.834a1.452 1.452 0 00-1.523 0l-1.519.933V41.863a4.86 4.86 0 002.694.81c1.565 0 3.053-.76 3.98-2.034 1.611-2.214 1.15-5.34-1.024-6.982l-5.885-4.654V17.225c0-.818-.656-1.48-1.465-1.48h-7.747c-.81 0-1.465.662-1.465 1.48v3.335l-7.826-6.189a4.867 4.867 0 00-5.934 0L21.332 25.456V10.775C21.332 4.834 16.547 0 10.666 0S0 4.834 0 10.775v17.748c0 2.812 1.065 5.472 3 7.492a10.568 10.568 0 006.202 3.183l-.001.04V53.14l-1.598-.983a1.452 1.452 0 00-1.523 0L2.335 54.46a1.483 1.483 0 00-.703 1.264V67.52c0 .817.656 1.48 1.465 1.48h27.781c.81 0 1.465-.663 1.465-1.48s-.656-1.48-1.465-1.48H19.54V39.557l18.776-14.921 18.775 14.92V66.04H44.122c-.809 0-1.465.663-1.465 1.48S43.313 69 44.122 69h29.413c.809 0 1.465-.663 1.465-1.48V55.724a1.48 1.48 0 00-.703-1.264zM52.038 18.705h4.818v7.981l-4.818-3.81v-4.171zM2.93 28.523V10.775c0-4.31 3.47-7.815 7.736-7.815s7.736 3.505 7.736 7.815v16.997l-6.271 4.96v-5.296l2.724-2.762a1.49 1.49 0 00-.003-2.092 1.454 1.454 0 00-2.072.003l-.649.658v-9.445c0-.817-.656-1.48-1.465-1.48s-1.465.663-1.465 1.48v3.575l-.044-.044a1.454 1.454 0 00-2.071-.004 1.49 1.49 0 00-.004 2.093l2.12 2.148v14.601l-.009.031c-3.595-.69-6.263-3.856-6.263-7.675zM16.61 53.09l-1.518-.933a1.452 1.452 0 00-1.523 0l-1.438.884V42.338a4.938 4.938 0 001.793.336 4.85 4.85 0 002.687-.812V53.09zM4.562 56.555l2.28-1.402 2.28 1.402v9.485h-4.56v-9.485zm7.49 9.485v-9.485l2.28-1.402 2.28 1.402v9.485h-4.56zm25.36-44.45L15.09 39.327a1.993 1.993 0 01-2.795-.442 2.068 2.068 0 01.457-2.887l24.384-19.282c.708-.52 1.65-.52 2.358 0l24.384 19.282.031.024a2.068 2.068 0 01.425 2.863 1.986 1.986 0 01-2.795.442L39.221 21.59a1.453 1.453 0 00-1.81 0zm22.61 34.965l2.28-1.402 2.28 1.402v9.485h-4.56v-9.485zm7.49 9.485v-9.485l2.28-1.402 2.28 1.402v9.485h-4.56z"/><path d="M50 46.786C50 42.42 46.776 39 42.66 39c-1.549 0-2.964.475-4.16 1.385-1.194-.91-2.61-1.385-4.16-1.385-4.116 0-7.34 3.42-7.34 7.786 0 7.756 10.41 12.853 10.854 13.066.202.098.423.148.646.148h.047l.045-.002c.209-.007.414-.057.602-.148C39.634 59.637 50 54.54 50 46.786zm-11.48 10.01C36.453 55.66 30 51.724 30 46.785c0-2.716 1.866-4.763 4.339-4.763 1.197 0 2.217.476 3.03 1.415.285.33.7.515 1.134.515h.011a1.504 1.504 0 001.152-.554c.806-.913 1.814-1.376 2.995-1.376 2.473 0 4.338 2.048 4.338 4.763 0 4.941-6.424 8.877-8.48 10.01zm.369 10.131a1.518 1.518 0 00-1.522-.921 1.516 1.516 0 00-1.316 1.108 1.51 1.51 0 00.575 1.609c.514.364 1.209.37 1.729.014a1.514 1.514 0 00.534-1.81z"/></g></svg>