<svg width="68" height="67" xmlns="http://www.w3.org/2000/svg"><g fill="#3FA6A2"><path d="M54.423 14.058l3.508 2.392-2.395 3.507-3.51-2.392zM47.4 9.264l3.51 2.393-2.394 3.507-3.51-2.393zm16.325 17.252c0 .407-.133.804-.38 1.135L66.835 30A5.802 5.802 0 0068 26.516c-.003-2.019-1.049-3.906-2.796-5.05L61.41 19 59 22.362l3.79 2.459a2.04 2.04 0 01.935 1.695z"/><path d="M27.519 62.746h-8.468V47.857h8.468v-4.254H14.817v19.143h-4.234v-31.28l23.287-16 15.742 10.826L52 22.782 33.87 10.314 7.64 28.334a2.269 2.269 0 01-3.016-.526 2.108 2.108 0 01-.392-1.2c0-.706.343-1.368.919-1.773L33.87 5.147l7.469 5.122 2.386-3.514L33.87 0 2.75 21.332c-2.889 1.998-3.619 5.971-1.63 8.874a6.342 6.342 0 005.229 2.762V67h25.404V56.365h-4.234v6.381z"/><path d="M34.24 27.132a4.128 4.128 0 013.883 2.743L42 28.505A8.232 8.232 0 1031.505 39l1.37-3.881a4.116 4.116 0 011.365-7.987zM62.653 38.83l.756-3.782-8.793-5.044-2.935 2.545H48.32L45.384 30l-8.793 5.044.756 3.783-1.681 2.891L32 42.956v10.088l3.664 1.238 1.683 2.891-.756 3.783L45.384 66l2.935-2.545h3.362L54.616 66l8.793-5.044-.756-3.783 1.681-2.891L68 53.044V42.956l-3.666-1.238-1.681-2.887zM61.46 50.809l-3.272 5.628.476 2.387-3.542 2.032-1.85-1.603h-6.547l-1.846 1.603-3.545-2.032.476-2.387-3.276-5.628-2.3-.778v-4.06l2.304-.778 3.272-5.628-.476-2.387 3.542-2.032 1.85 1.603h6.547l1.846-1.603 3.545 2.032-.476 2.387 3.272 5.628 2.304.778v4.06l-2.304.778z"/><path d="M49.5 40a7.5 7.5 0 100 15 7.5 7.5 0 000-15zm0 10.714a3.214 3.214 0 110-6.428 3.214 3.214 0 010 6.428z"/></g></svg>