<svg width="66" height="72" xmlns="http://www.w3.org/2000/svg"><path d="M37.052 0L8.075 22.315l6.717 8.75 2.525-1.944v4.73c-3.298 5.212-3.03 12.055.802 17.003l-2.066 2.071-2.574-2.58-11.863 11.89A5.5 5.5 0 000 66.146a5.5 5.5 0 001.616 3.91l.326.327A5.494 5.494 0 005.843 72a5.5 5.5 0 003.902-1.617l11.862-11.89-2.584-2.59 2.115-2.121a14.64 14.64 0 008.657 2.805c3.946 0 7.656-1.54 10.446-4.337a14.753 14.753 0 002.669-3.653h13.875V29.141l2.498 1.926L66 22.315 37.052 0zM6.775 67.406a1.317 1.317 0 01-1.863 0l-.326-.326a1.313 1.313 0 01-.386-.934c0-.353.137-.684.386-.933l8.893-8.914 2.188 2.194-8.892 8.913zM37.27 49.274a10.492 10.492 0 01-7.476 3.104c-2.824 0-5.48-1.103-7.477-3.104-4.122-4.132-4.122-10.856 0-14.988a10.527 10.527 0 017.477-3.099c2.707 0 5.415 1.033 7.476 3.1 4.122 4.131 4.122 10.855 0 14.987zm15.314-4.886H44.33c.816-4.606-.547-9.527-4.09-13.079-5.084-5.095-12.98-5.693-18.724-1.795v-3.608L37.05 13.93l15.535 11.977v18.482zm5.93-19.225L38.41 9.666l-1.36-1.048-2.102 1.62-19.386 14.926-1.595-2.077L37.05 5.31l23.06 17.776-1.595 2.077z" fill="#3FA6A2"/></svg>