<svg width="69" height="65" xmlns="http://www.w3.org/2000/svg"><g fill="#3FA6A2"><path d="M66.47 18.537a4.065 4.065 0 00-.06-.04l-7.767-5.12h.228V5.503c0-.621-.51-1.125-1.138-1.125h-5.687c-.628 0-1.137.504-1.137 1.125v2.773L40.166 1.189a1.148 1.148 0 00-1.263 0L12.66 18.497a3.442 3.442 0 00-1.022 4.794c1.057 1.603 3.227 2.056 4.848 1.01l.06-.039 3.653-2.408V43.75h-2.275c0-.622-.51-1.125-1.138-1.125H7.687A1.13 1.13 0 006.55 43.75H2V46h4.55v11.248H2v2.25h4.55c0 .621.509 1.125 1.137 1.125h9.1c.628 0 1.137-.504 1.137-1.125v-.428l8.492 3.487a19.894 19.894 0 0014.474.157l17.571-6.624a4.118 4.118 0 002.323-2.19 4.12 4.12 0 00.067-3.23 4.1 4.1 0 00-1.98-2.145V21.854l3.652 2.408c1.599 1.078 3.778.67 4.868-.91a3.44 3.44 0 00-.921-4.815zM15.649 58.373H8.824V44.875h6.825v13.498zM53.184 6.628h3.412v5.4l-3.412-2.25v-3.15zm5.52 46.363a1.875 1.875 0 01-1.054.996l-17.57 6.626a17.583 17.583 0 01-12.799-.137l-9.357-3.844V45.999h2.883a24.63 24.63 0 0110.866 2.538 8.148 8.148 0 003.588.837h8.823a1.697 1.697 0 011.696 1.697 1.691 1.691 0 01-1.32 1.634c-.148.013-.295.044-.446.044H30.435v2.25h13.649c.023 0 .045-.007.069-.007a7.102 7.102 0 002.625-.55l9.51-3.992a1.825 1.825 0 011.418 0c.47.197.84.576 1.024 1.048a1.914 1.914 0 01-.027 1.493zm-14.62-5.867h-8.823a5.853 5.853 0 01-2.571-.6 26.937 26.937 0 00-10.217-2.718V20.352l17.062-11.25 17.06 11.25v27.742a4.15 4.15 0 00-1.197.283l-7.375 3.098c.022-.137.036-.275.042-.414 0-2.174-1.782-3.937-3.98-3.937zM65.047 22.45v-.004a1.23 1.23 0 01-1.263-.06L40.166 6.818a1.148 1.148 0 00-1.263 0L15.285 22.39a1.238 1.238 0 01-1.705-.338 1.207 1.207 0 01.341-1.687L39.535 3.478l25.613 16.89c.342.226.548.606.547 1.013.004.448-.247.86-.648 1.069z" stroke="#3FA6A2"/><path stroke="#3FA6A2" d="M11 54h2v2h-2z"/><path d="M42.85 31.903c-.27-.803-.88-1.47-1.691-1.844l-2.274-1.056c-.492-.228-.692-.784-.446-1.241.169-.314.513-.512.89-.512h.341c.55.001.995.415.997.925v.158H43v-.158c-.006-1.346-.95-2.533-2.333-2.935V24h-2.334v1.24c-1.75.506-2.727 2.233-2.182 3.857.269.803.88 1.47 1.69 1.844l2.274 1.056c.492.228.692.784.446 1.241a1.007 1.007 0 01-.89.512h-.341c-.55-.001-.995-.415-.997-.925v-.158H36v.158c.006 1.346.95 2.533 2.333 2.935V37h2.334v-1.24c1.75-.506 2.727-2.233 2.182-3.857z"/><path d="M39.5 19c-6.348.007-11.493 4.928-11.5 11 0 6.075 5.149 11 11.5 11S51 36.075 51 30s-5.149-11-11.5-11zm0 19.8c-5.081 0-9.2-3.94-9.2-8.8 0-4.86 4.119-8.8 9.2-8.8 5.079.006 9.194 3.942 9.2 8.8 0 4.86-4.119 8.8-9.2 8.8z" stroke="#3FA6A2"/><path stroke="#3FA6A2" d="M44 29h2v2h-2zm-11 0h2v2h-2z"/></g></svg>