<svg width="62" height="62" xmlns="http://www.w3.org/2000/svg"><g fill="#3FA6A2"><path d="M60.063 0h-46.5c-1.07 0-1.938.867-1.938 1.938v9.687H1.937c-1.07 0-1.937.867-1.937 1.938V54.25C0 58.523 3.477 62 7.75 62h46.5c4.28 0 7.75-3.463 7.75-7.75V1.937C62 .867 61.133 0 60.062 0zM7.75 58.125a3.88 3.88 0 01-3.875-3.875V15.5H46.5c0 41.586-.005 38.796.009 39.104a7.706 7.706 0 001.031 3.521H7.75zm50.375-3.875a3.873 3.873 0 01-3.875 3.875 3.88 3.88 0 01-3.875-3.875V13.562c0-1.07-.867-1.937-1.938-1.937H15.5v-7.75h42.625V54.25z"/><path d="M42.053 19H8.947C7.872 19 7 19.843 7 20.882v12.236C7 34.158 7.872 35 8.947 35h33.106C43.128 35 44 34.157 44 33.118V20.882c0-1.04-.872-1.882-1.947-1.882zm-1.948 12.235h-29.21v-8.47h29.21v8.47zM22.111 38H8.89A1.889 1.889 0 007 39.889V53.11A1.89 1.89 0 008.889 55H22.11A1.889 1.889 0 0024 53.111V39.89A1.889 1.889 0 0022.111 38zm-1.889 13.222h-9.444v-9.444h9.444v9.444zM41.118 38H28.882c-1.04 0-1.882.895-1.882 2s.843 2 1.882 2h12.236c1.04 0 1.882-.895 1.882-2s-.843-2-1.882-2zm0 7H28.882c-1.04 0-1.882.895-1.882 2s.843 2 1.882 2h12.236c1.04 0 1.882-.895 1.882-2s-.843-2-1.882-2zm0 6H28.882c-1.04 0-1.882.895-1.882 2s.843 2 1.882 2h12.236c1.04 0 1.882-.895 1.882-2s-.843-2-1.882-2z"/></g></svg>