<svg width="75" height="61" xmlns="http://www.w3.org/2000/svg"><g fill="#3FA6A2"><path d="M20.044 6.79l-5.9-.854L11.506.613c-.373-.818-1.64-.817-2.012 0L6.856 5.936l-5.9.854c-.896.1-1.288 1.3-.622 1.906l4.27 4.143-1.009 5.85c-.18.88.844 1.622 1.628 1.179l5.277-2.763 5.276 2.763c.783.443 1.81-.298 1.628-1.178l-1.007-5.85 4.268-4.144c.667-.606.275-1.806-.621-1.906zm-5.636 4.859a1.115 1.115 0 00-.323.99l.723 4.197-3.786-1.982a1.127 1.127 0 00-1.044 0l-3.786 1.982.723-4.198a1.115 1.115 0 00-.323-.989L3.53 8.676l4.233-.613a1.12 1.12 0 00.845-.61l1.893-3.82 1.893 3.82c.164.329.48.558.845.61l4.233.613-3.063 2.973zm5.636 16.141l-5.9-.854-2.638-5.323c-.373-.818-1.64-.817-2.012 0l-2.638 5.323-5.9.854c-.896.1-1.288 1.3-.622 1.906l4.27 4.143-1.009 5.85c-.18.88.844 1.622 1.628 1.179l5.277-2.763 5.276 2.763c.783.443 1.81-.298 1.628-1.178l-1.007-5.85 4.268-4.144c.667-.606.275-1.806-.621-1.906zm-5.636 4.859a1.115 1.115 0 00-.323.99l.723 4.197-3.786-1.982a1.127 1.127 0 00-1.044 0l-3.786 1.982.723-4.198a1.115 1.115 0 00-.323-.989L3.53 29.676l4.233-.613a1.12 1.12 0 00.845-.61l1.893-3.82 1.893 3.82c.164.329.48.558.845.61l4.233.613-3.063 2.973z"/><path d="M20.044 47.79l-5.9-.854-2.638-5.323c-.373-.818-1.64-.817-2.012 0l-2.638 5.323-5.9.854c-.896.1-1.288 1.3-.622 1.906l4.27 4.143-1.009 5.85c-.18.88.844 1.622 1.628 1.179l5.277-2.763 5.276 2.763c.783.443 1.81-.298 1.628-1.178l-1.007-5.85 4.268-4.144c.667-.606.275-1.806-.621-1.906zm-5.636 4.859a1.115 1.115 0 00-.323.99l.723 4.197-3.786-1.982a1.127 1.127 0 00-1.044 0l-3.786 1.982.723-4.198a1.115 1.115 0 00-.323-.989L3.53 49.676l4.233-.613a1.12 1.12 0 00.845-.61l1.893-3.82 1.893 3.82c.164.329.48.558.845.61l4.233.613-3.063 2.973zM72.44 4h-3.16c-.606 0-1.097.497-1.097 1.111s.491 1.111 1.097 1.111h3.16c.202 0 .366.166.366.37v6.815c0 .205-.164.37-.366.37H28.56a.368.368 0 01-.366-.37V6.593c0-.205.164-.37.366-.37h35.6c.606 0 1.098-.498 1.098-1.112 0-.614-.492-1.111-1.097-1.111H28.56C27.148 4 26 5.163 26 6.593v6.814C26 14.837 27.148 16 28.56 16h43.88c1.412 0 2.56-1.163 2.56-2.593V6.593C75 5.163 73.852 4 72.44 4z"/><path d="M34.1 9c-.607 0-1.1.448-1.1 1s.493 1 1.1 1h30.8c.607 0 1.1-.448 1.1-1s-.493-1-1.1-1H34.1zm26.36 15H28.54c-1.4 0-2.54 1.163-2.54 2.593v6.814C26 34.837 27.14 36 28.54 36h24.578a1.1 1.1 0 001.088-1.111 1.1 1.1 0 00-1.088-1.111H28.539a.367.367 0 01-.363-.37v-6.815c0-.205.163-.37.363-.37h31.922c.2 0 .363.165.363.37v6.814c0 .205-.163.37-.363.37h-2.265a1.1 1.1 0 00-1.088 1.112A1.1 1.1 0 0058.196 36h2.265C61.86 36 63 34.837 63 33.407v-6.814C63 25.163 61.861 24 60.46 24z"/><path d="M54.887 29H34.113c-.615 0-1.113.448-1.113 1s.498 1 1.113 1h20.774c.615 0 1.113-.448 1.113-1s-.498-1-1.113-1zm-8.484 16H36.075a1.112 1.112 0 100 2.222h10.328a.37.37 0 01.371.37v6.815a.37.37 0 01-.37.37H28.596a.371.371 0 01-.371-.37v-6.814a.37.37 0 01.37-.37h2.285a1.112 1.112 0 100-2.223h-2.284A2.598 2.598 0 0026 47.593v6.814A2.598 2.598 0 0028.597 57h17.806A2.598 2.598 0 0049 54.407v-6.814A2.598 2.598 0 0046.403 45z"/><path d="M40.846 52c.637 0 1.154-.448 1.154-1s-.517-1-1.154-1h-7.692c-.637 0-1.154.448-1.154 1s.517 1 1.154 1h7.692z"/></g></svg>