<svg width="75" height="67" xmlns="http://www.w3.org/2000/svg"><g fill="#3FA6A2"><path d="M73.901 45.721h-2.748V4.045c0-2.23-1.82-4.045-4.058-4.045H7.905C5.668 0 3.847 1.815 3.847 4.045V45.72H1.1c-.607 0-1.099.49-1.099 1.095v2.95c0 2.23 1.82 4.045 4.058 4.045h9.1l-1.555 1.55a1.1 1.1 0 00-1.515.036L.322 65.13a1.092 1.092 0 000 1.548 1.1 1.1 0 001.554 0l8.989-8.96 3.477 3.466-3.958 3.946a1.092 1.092 0 000 1.548 1.098 1.098 0 001.554 0l4.735-4.72c.417-.415.427-1.08.035-1.51l1.853-1.846a1.097 1.097 0 001.515-.036l2.964-2.953a17.313 17.313 0 008.541 2.242 17.33 17.33 0 0011.147-4.045h15.293c.607 0 1.099-.49 1.099-1.095s-.492-1.095-1.099-1.095h-13.1a17.362 17.362 0 002.38-3.71h25.502v1.854a1.86 1.86 0 01-1.86 1.856h-7.795c-.607 0-1.099.49-1.099 1.095s.492 1.095 1.099 1.095h7.794A4.056 4.056 0 0075 49.765v-2.949c0-.605-.492-1.095-1.099-1.095zM2.197 49.765v-1.854h13.664c.184.388.382.768.594 1.14l-2.58 2.57H4.059a1.86 1.86 0 01-1.86-1.856zm10.962 7.143l1.85-1.843 1.997 1.99-1.85 1.844-1.997-1.99zm6.14-.663l-3.477-3.466 1.863-1.857a17.493 17.493 0 003.477 3.466l-1.863 1.857zm-2.896-15.708c0-8.342 6.809-15.128 15.178-15.128 8.37 0 15.178 6.786 15.178 15.128s-6.808 15.129-15.178 15.129c-8.37 0-15.178-6.787-15.178-15.129zm32.35 2.654h16.566c.607 0 1.098-.49 1.098-1.095V5.814c0-.605-.491-1.095-1.098-1.095H17.985a1.096 1.096 0 100 2.19H64.22v34.092H48.95c.004-.154.007-.309.007-.464 0-9.55-7.795-17.318-17.376-17.318-9.58 0-17.376 7.769-17.376 17.318 0 .155.003.31.007.464H10.78V6.909h2.078c.607 0 1.099-.49 1.099-1.095s-.492-1.095-1.099-1.095H9.681c-.607 0-1.098.49-1.098 1.095v36.282c0 .605.491 1.095 1.098 1.095h4.728c.134.866.333 1.711.592 2.53H6.045V4.045a1.86 1.86 0 011.86-1.855h59.19a1.86 1.86 0 011.86 1.855V45.72H48.161a17.02 17.02 0 00.592-2.53z"/><path d="M14 10.091v8.818A1.09 1.09 0 0015.09 20h45.82A1.09 1.09 0 0062 18.909V10.09A1.09 1.09 0 0060.91 9H15.09A1.09 1.09 0 0014 10.091zm45.82 7.727H47.313v-6.636H59.82v6.636zm-43.64-6.636h28.954v6.636H16.18v-6.636zm17.5 16.828c-.619-.079-1.186.343-1.266.94-.08.598.356 1.145.975 1.222 5.331.668 9.351 5.088 9.351 10.28 0 5.716-4.818 10.367-10.74 10.367-5.923 0-10.74-4.65-10.74-10.367 0-4.494 2.975-8.453 7.404-9.852.593-.188.917-.803.723-1.376-.194-.572-.832-.884-1.426-.697C22.601 30.22 19 35.013 19 40.452 19 47.372 24.832 53 32 53s13-5.629 13-12.548c0-6.285-4.867-11.634-11.32-12.443z"/></g></svg>